<svg width="28" height="29" viewBox="0 0 28 29" fill="none" xmlns="http://www.w3.org/2000/svg">
<path d="M13.9999 16.0054C14.8921 16.0054 15.6153 15.2822 15.6153 14.39C15.6153 13.4979 14.8921 12.7747 13.9999 12.7747C13.1078 12.7747 12.3845 13.4979 12.3845 14.39C12.3845 15.2822 13.1078 16.0054 13.9999 16.0054Z" fill="#EFCCED"/>
<path d="M14 0.389648C6.28048 0.389648 0 6.67013 0 14.3896C0 22.1092 6.28048 28.3897 14 28.3897C21.7195 28.3897 28 22.1092 28 14.3896C28 6.67013 21.7195 0.389648 14 0.389648ZM21.072 8.01763L17.9166 15.9061C17.7 16.4479 17.3755 16.94 16.9629 17.3526C16.5503 17.7652 16.0582 18.0896 15.5164 18.3063L7.62798 21.4617C7.53013 21.5008 7.42293 21.5104 7.31968 21.4892C7.21643 21.4681 7.12166 21.417 7.04713 21.3425C6.9726 21.268 6.92159 21.1732 6.9004 21.07C6.87922 20.9667 6.88881 20.8595 6.92798 20.7617L10.0834 12.8732C10.3 12.3314 10.6245 11.8393 11.0371 11.4267C11.4497 11.0141 11.9418 10.6897 12.4836 10.473L20.372 7.31763C20.4699 7.27846 20.5771 7.26887 20.6803 7.29005C20.7836 7.31123 20.8783 7.36225 20.9529 7.43678C21.0274 7.51131 21.0784 7.60608 21.0996 7.70933C21.1208 7.81258 21.1112 7.91978 21.072 8.01763Z" fill="#EFCCED"/>
</svg>
