<svg width="24" height="27" viewBox="0 0 24 27" fill="none" xmlns="http://www.w3.org/2000/svg">
<path d="M10.0305 0.878845L1.18005 7.51664C0.44252 8.07717 0 8.94746 0 9.87675V23.1523C0 24.7749 1.32756 26.1025 2.95013 26.1025H20.6509C22.2735 26.1025 23.6011 24.7749 23.6011 23.1523V9.87675C23.6011 8.94746 23.1585 8.07717 22.421 7.51664L13.5706 0.878845C13.059 0.498109 12.4383 0.29248 11.8005 0.29248C11.1628 0.29248 10.5421 0.498109 10.0305 0.878845ZM12.5381 13.5644C12.5381 14.7887 11.5498 15.777 10.3255 15.777V20.9397C10.3255 21.3528 10.001 21.6773 9.58793 21.6773C9.17491 21.6773 8.8504 21.3528 8.8504 20.9397V15.777C7.62609 15.777 6.6378 14.7887 6.6378 13.5644V9.87675C6.6378 9.46373 6.96231 9.13922 7.37533 9.13922C7.78835 9.13922 8.11287 9.46373 8.11287 9.87675V13.5644H8.8504V9.87675C8.8504 9.46373 9.17491 9.13922 9.58793 9.13922C10.001 9.13922 10.3255 9.46373 10.3255 9.87675V13.5644H11.063V9.87675C11.063 9.46373 11.3875 9.13922 11.8005 9.13922C12.2135 9.13922 12.5381 9.46373 12.5381 9.87675V13.5644ZM15.4882 21.6773C15.0752 21.6773 14.7507 21.3528 14.7507 20.9397V16.5145H14.0131C13.6001 16.5145 13.2756 16.19 13.2756 15.777V12.0893C13.2756 10.7913 14.1164 9.68499 15.2817 9.30147C15.739 9.13922 16.2257 9.50798 16.2257 10.0095V20.9397C16.2257 21.3528 15.9012 21.6773 15.4882 21.6773Z" fill="#EFEFEF"/>
</svg>
