<svg width="13" height="12" viewBox="0 0 13 12" fill="none" xmlns="http://www.w3.org/2000/svg">
<path d="M6.33008 6.53125L2.08008 10.7812C1.76758 11.0938 1.29883 11.0938 1.01758 10.7812L0.298828 10.0938C0.0175781 9.78125 0.0175781 9.3125 0.298828 9.03125L3.33008 6.03125L0.298828 3C0.0175781 2.71875 0.0175781 2.25 0.298828 1.9375L1.01758 1.21875C1.29883 0.9375 1.76758 0.9375 2.08008 1.21875L6.33008 5.46875C6.61133 5.78125 6.61133 6.25 6.33008 6.53125ZM12.3301 5.46875C12.6113 5.78125 12.6113 6.25 12.3301 6.53125L8.08008 10.7812C7.79883 11.0938 7.29883 11.0938 7.01758 10.7812L6.29883 10.0938C6.01758 9.78125 6.01758 9.3125 6.29883 9.03125L9.33008 6L6.29883 3C6.01758 2.71875 6.01758 2.21875 6.29883 1.9375L7.01758 1.21875C7.29883 0.9375 7.76758 0.9375 8.08008 1.21875L12.3301 5.46875Z" fill="#C0EBA6"/>
</svg>
