<svg width="24" height="34" viewBox="0 0 24 34" fill="none" xmlns="http://www.w3.org/2000/svg">
<path d="M6.98234 7.61352C6.93412 6.25155 6.97303 4.80921 7.45268 3.68241C7.70562 3.09024 8.07022 2.61144 8.59809 2.27221C9.1285 1.93214 9.88986 1.69189 11.0031 1.69189C12.2509 1.69189 13.2906 2.14532 14.035 2.61736C14.4047 2.85253 14.6931 3.08686 14.8869 3.26028C14.9773 3.3417 15.0648 3.42635 15.1491 3.51407L15.1576 3.52252V3.52337C15.2313 3.60647 15.3207 3.67422 15.4207 3.72276C15.5206 3.77131 15.6292 3.79969 15.7401 3.80628C15.851 3.81288 15.9621 3.79757 16.0671 3.76122C16.1721 3.72487 16.269 3.66819 16.352 3.59443C16.4351 3.52066 16.5029 3.43126 16.5514 3.33131C16.6 3.23136 16.6284 3.12283 16.635 3.01191C16.6416 2.90099 16.6262 2.78986 16.5899 2.68486C16.5535 2.57986 16.4969 2.48305 16.4231 2.39995L15.8013 2.94982C16.4231 2.39995 16.4214 2.39826 16.4214 2.39826L16.418 2.39403L16.4096 2.38557C16.3763 2.3479 16.3418 2.31123 16.3064 2.2756C16.2124 2.18112 16.1156 2.08943 16.0162 2.00066C15.6802 1.70184 15.321 1.43028 14.9419 1.18856C14.0198 0.605698 12.6663 0 11.0031 0C9.64453 0 8.54734 0.295235 7.68447 0.848485C6.81907 1.40427 6.25482 2.17662 5.89614 3.01919C5.27183 4.48521 5.24138 6.23209 5.28875 7.61352H0.802691C0.334883 7.61352 -0.0483313 7.9942 0.00496335 8.45778C0.525221 13.009 5.216 16.6152 11.0513 16.9003V23.6865H12.7432V16.8902C14.1514 16.8062 15.5395 16.5154 16.863 16.0273C16.8715 16.1243 16.8757 16.225 16.8757 16.3293C16.8757 16.9739 16.3487 17.7454 15.2675 18.4154C14.7132 18.7541 14.116 19.017 13.4919 19.1971V20.9448C14.4334 20.7271 15.3336 20.3586 16.1575 19.8535C17.4036 19.0846 18.5676 17.8689 18.5676 16.3302C18.5676 15.9833 18.5354 15.6407 18.4635 15.3083C21.3118 13.7822 23.2685 11.3052 23.595 8.45863C23.6483 7.99505 23.2643 7.61437 22.7973 7.61437L6.98234 7.61352Z" fill="white"/>
<path d="M16.8756 29.608C16.8756 30.5935 16.5711 31.4589 16.0136 32.1458H18.5675V33.8377H5.03235V32.1458H11.0513V28.762H12.7432V32.0731C13.4216 31.9623 13.9579 31.7313 14.3437 31.4276C14.8724 31.0131 15.1837 30.4159 15.1837 29.608C15.1837 28.8001 14.8724 28.2037 14.3437 27.7883C13.7938 27.3552 12.9377 27.0693 11.7999 27.0693C10.5166 27.0693 9.0929 26.9686 7.96694 26.4687C7.38831 26.2115 6.85452 25.8342 6.46707 25.2818C6.07625 24.7235 5.8783 24.0459 5.8783 23.2634C5.8783 22.4809 6.07625 21.8033 6.46707 21.2449C6.85452 20.6925 7.38916 20.3153 7.96694 20.0581C8.60986 19.7722 9.35175 19.6165 10.108 19.5361V21.239C9.5514 21.3092 9.05737 21.4251 8.65385 21.6045C8.28079 21.7703 8.02192 21.975 7.85358 22.2152C7.68947 22.4496 7.57019 22.777 7.57019 23.2634C7.57019 23.7498 7.68862 24.0772 7.85358 24.3115C8.02192 24.5518 8.28079 24.7565 8.65385 24.9223C9.43212 25.2683 10.5454 25.3782 11.7999 25.3782C13.1991 25.3782 14.4596 25.7276 15.3893 26.4577C16.341 27.2055 16.8756 28.301 16.8756 29.608Z" fill="white"/>
</svg>
