<svg width="19" height="33" viewBox="0 0 19 33" fill="none" xmlns="http://www.w3.org/2000/svg">
<path d="M4.68182 7.7288H12.0455M4.68182 7.7288V11.4106H12.0455V7.7288M4.68182 7.7288V5.51971C4.68182 3.31062 6.89091 1.83789 9.1 1.83789H17.2C17.2 1.83789 12.0455 3.31062 12.0455 6.25607V7.7288M1 12.8833C1 12.4928 1.15516 12.1182 1.43135 11.842C1.70754 11.5658 2.08214 11.4106 2.47273 11.4106H14.2545C14.6451 11.4106 15.0197 11.5658 15.2959 11.842C15.5721 12.1182 15.7273 12.4928 15.7273 12.8833V26.8743C15.7273 26.8743 15.7273 31.2924 11.3091 31.2924H5.41818C1 31.2924 1 26.8743 1 26.8743V12.8833Z" stroke="#EFEFEF" stroke-width="1.8" stroke-linecap="round" stroke-linejoin="round"/>
</svg>
